<?xml version="1.0" encoding="UTF-8"?>
<svg xmlns="http://www.w3.org/2000/svg" xmlns:xlink="http://www.w3.org/1999/xlink" width="48pt" height="48pt" viewBox="0 0 48 48" version="1.1">
<defs>
<linearGradient id="linear0" gradientUnits="userSpaceOnUse" x1="35.174" y1="35.37108" x2="147.79817" y2="147.99525" gradientTransform="matrix(0.27907,0,0,0.27907,0,0)">
<stop offset="0" style="stop-color:rgb(100%,50.588235%,46.666667%);stop-opacity:1;"/>
<stop offset="0.443" style="stop-color:rgb(69.411765%,16.470588%,35.686275%);stop-opacity:1;"/>
<stop offset="1" style="stop-color:rgb(86.666667%,43.137255%,58.823529%);stop-opacity:1;"/>
</linearGradient>
<filter id="alpha" filterUnits="objectBoundingBox" x="0%" y="0%" width="100%" height="100%">
  <feColorMatrix type="matrix" in="SourceGraphic" values="0 0 0 0 1 0 0 0 0 1 0 0 0 0 1 0 0 0 1 0"/>
</filter>
<mask id="mask0">
  <g filter="url(#alpha)">
<rect x="0" y="0" width="48" height="48" style="fill:rgb(0%,0%,0%);fill-opacity:0.0509804;stroke:none;"/>
  </g>
</mask>
<clipPath id="clip1">
  <rect width="48" height="48"/>
</clipPath>
<g id="surface4319356" clip-path="url(#clip1)">
<path style=" stroke:none;fill-rule:nonzero;fill:rgb(0%,0%,0%);fill-opacity:1;" d="M 32.351562 22.441406 L 20.914062 14.816406 C 20.339844 14.429688 19.601562 14.394531 18.992188 14.722656 C 18.378906 15.050781 18 15.683594 18 16.375 L 18 31.625 C 18 32.316406 18.378906 32.949219 18.992188 33.277344 C 19.269531 33.425781 19.570312 33.5 19.875 33.5 C 20.238281 33.5 20.601562 33.394531 20.914062 33.183594 L 32.351562 25.5625 C 32.875 25.210938 33.1875 24.628906 33.1875 24 C 33.1875 23.371094 32.875 22.789062 32.351562 22.441406 Z M 32.351562 22.441406 "/>
</g>
<mask id="mask1">
  <g filter="url(#alpha)">
<rect x="0" y="0" width="48" height="48" style="fill:rgb(0%,0%,0%);fill-opacity:0.0705882;stroke:none;"/>
  </g>
</mask>
<clipPath id="clip2">
  <rect width="48" height="48"/>
</clipPath>
<g id="surface4319359" clip-path="url(#clip2)">
<path style=" stroke:none;fill-rule:nonzero;fill:rgb(0%,0%,0%);fill-opacity:1;" d="M 20.679688 15.238281 L 31.472656 22.429688 C 32.160156 22.925781 32.625 23.367188 32.625 23.945312 C 32.625 24.519531 32.398438 24.921875 31.910156 25.277344 C 31.539062 25.546875 20.863281 32.640625 20.863281 32.640625 C 19.964844 33.246094 18.5 33.117188 18.5 31.144531 L 18.5 16.742188 C 18.5 14.738281 20.085938 14.839844 20.679688 15.238281 Z M 20.679688 15.238281 "/>
</g>
</defs>
<g id="surface4319351">
<path style=" stroke:none;fill-rule:nonzero;fill:url(#linear0);" d="M 45.011719 34.558594 C 44.574219 36.800781 42.707031 38.507812 40.402344 38.828125 C 36.78125 39.359375 30.746094 40 23.945312 40 C 17.253906 40 11.21875 39.359375 7.484375 38.828125 C 5.183594 38.507812 3.316406 36.800781 2.878906 34.558594 C 2.4375 32.105469 2 28.480469 2 24 C 2 19.519531 2.4375 15.894531 2.878906 13.441406 C 3.316406 11.199219 5.183594 9.492188 7.484375 9.171875 C 11.105469 8.640625 17.140625 8 23.945312 8 C 30.746094 8 36.671875 8.640625 40.402344 9.171875 C 42.707031 9.492188 44.574219 11.199219 45.011719 13.441406 C 45.449219 15.894531 46 19.519531 46 24 C 45.890625 28.480469 45.449219 32.105469 45.011719 34.558594 Z M 45.011719 34.558594 "/>
<use xlink:href="#surface4319356" mask="url(#mask0)"/>
<use xlink:href="#surface4319359" mask="url(#mask1)"/>
<path style=" stroke:none;fill-rule:nonzero;fill:rgb(100%,100%,100%);fill-opacity:1;" d="M 19 31.566406 L 19 16.433594 C 19 15.691406 19.828125 15.246094 20.445312 15.660156 L 31.800781 23.226562 C 32.351562 23.59375 32.351562 24.40625 31.800781 24.777344 L 20.445312 32.34375 C 19.828125 32.753906 19 32.3125 19 31.566406 Z M 19 31.566406 "/>
</g>
</svg>
